<?xml version="1.0" standalone="no"?>
<!DOCTYPE svg PUBLIC "-//W3C//DTD SVG 20010904//EN"
 "http://www.w3.org/TR/2001/REC-SVG-20010904/DTD/svg10.dtd">
<svg version="1.0" xmlns="http://www.w3.org/2000/svg"
 width="2000.000000pt" height="2000.000000pt" viewBox="0 0 2000.000000 2000.000000"
 preserveAspectRatio="xMidYMid meet">

<g transform="translate(0.000000,2000.000000) scale(0.100000,-0.100000)"
fill="#000000" stroke="none">
<path d="M6720 17304 c-70 -24 -93 -26 -327 -32 -250 -7 -252 -7 -278 -32 -25
-23 -35 -25 -158 -30 -124 -6 -177 -18 -177 -40 0 -16 -72 -30 -151 -30 -71 0
-77 -2 -104 -30 -26 -27 -35 -30 -92 -30 -62 0 -123 -20 -123 -40 0 -12 -66
-30 -113 -30 -27 0 -45 -8 -67 -29 -25 -24 -43 -30 -98 -36 -56 -6 -71 -11
-94 -36 -21 -22 -36 -29 -66 -29 -30 0 -45 -7 -67 -30 -19 -20 -39 -30 -58
-30 -31 0 -62 -13 -92 -40 -11 -10 -40 -24 -65 -30 -24 -7 -57 -23 -73 -36
-16 -13 -37 -24 -47 -24 -11 0 -35 -14 -53 -30 -19 -17 -50 -33 -68 -36 -20
-4 -47 -20 -66 -40 -26 -27 -40 -34 -71 -34 -31 0 -43 -5 -55 -24 -17 -25 -71
-61 -144 -95 -23 -11 -47 -29 -53 -41 -6 -11 -34 -32 -63 -46 -89 -43 -110
-58 -172 -120 -33 -33 -75 -66 -93 -72 -18 -6 -47 -22 -63 -34 -51 -39 -350
-332 -614 -602 -123 -125 -167 -178 -175 -205 -5 -20 -34 -63 -64 -96 -116
-129 -126 -143 -126 -169 0 -17 -13 -41 -37 -66 -78 -82 -93 -103 -93 -131 0
-27 -10 -40 -54 -77 -9 -7 -16 -28 -16 -47 0 -26 -8 -42 -30 -61 -16 -15 -35
-43 -41 -63 -6 -20 -20 -46 -31 -57 -11 -12 -26 -43 -33 -69 -8 -25 -25 -59
-38 -75 -13 -15 -27 -46 -30 -67 -4 -23 -17 -49 -32 -63 -19 -18 -25 -34 -25
-65 0 -35 -6 -46 -35 -72 -29 -26 -35 -38 -35 -73 0 -31 -6 -47 -26 -65 -21
-19 -28 -38 -35 -95 -7 -61 -13 -76 -39 -100 -27 -26 -30 -34 -30 -94 0 -60
-3 -68 -29 -92 -27 -23 -29 -32 -33 -106 -3 -75 -5 -82 -33 -104 -28 -22 -29
-27 -33 -123 -4 -94 -6 -101 -33 -127 -28 -27 -29 -31 -29 -126 0 -101 -13
-152 -48 -191 -14 -16 -18 -48 -22 -193 -5 -162 -7 -175 -29 -205 -38 -52 -43
-165 -39 -1049 l3 -815 30 -55 c29 -54 30 -59 35 -231 5 -174 5 -176 34 -218
28 -40 30 -48 34 -173 5 -126 6 -133 31 -156 24 -22 26 -31 31 -141 4 -95 9
-122 25 -145 40 -57 45 -72 45 -147 0 -67 3 -81 27 -115 22 -32 28 -54 33
-121 5 -73 10 -86 35 -113 24 -25 29 -39 33 -104 3 -52 10 -81 22 -94 31 -33
40 -60 40 -116 0 -44 5 -60 26 -85 29 -35 44 -80 44 -134 0 -28 7 -44 26 -62
23 -21 28 -37 33 -96 6 -63 11 -75 35 -94 25 -20 29 -31 34 -93 4 -62 8 -74
33 -97 22 -19 29 -34 29 -60 0 -41 20 -95 50 -132 13 -17 20 -41 20 -69 0 -36
5 -49 29 -69 23 -21 30 -37 35 -85 5 -43 14 -68 36 -96 22 -27 30 -47 30 -78
0 -34 5 -45 31 -67 29 -24 34 -37 38 -96 0 -12 12 -32 25 -45 18 -17 28 -41
35 -86 8 -47 18 -72 41 -98 22 -26 30 -44 30 -74 0 -32 5 -43 30 -60 26 -18
30 -28 30 -65 0 -37 5 -48 29 -66 22 -16 31 -33 36 -68 4 -27 16 -56 30 -71
13 -14 28 -44 33 -68 6 -24 21 -60 35 -80 14 -20 31 -57 37 -82 7 -25 21 -55
32 -66 10 -12 26 -43 34 -70 8 -26 24 -58 35 -70 11 -12 25 -42 30 -66 6 -23
21 -54 34 -68 13 -14 28 -42 33 -63 6 -20 22 -51 36 -68 14 -17 26 -39 26 -48
0 -10 11 -34 24 -54 14 -20 34 -56 45 -81 11 -25 25 -46 30 -46 6 0 17 -21 24
-47 7 -29 22 -53 39 -66 21 -15 28 -29 28 -53 0 -17 8 -42 19 -55 16 -20 21
-21 35 -10 26 22 21 94 -10 130 -27 32 -43 83 -44 136 0 21 -9 39 -30 57 -28
24 -30 31 -30 92 0 61 -2 67 -35 100 -33 33 -35 40 -35 99 0 57 -3 66 -29 91
-24 23 -29 37 -34 99 -5 63 -10 75 -34 94 -23 19 -28 32 -34 93 -5 54 -11 76
-29 95 -17 18 -26 43 -31 86 -5 41 -16 73 -35 101 -22 31 -30 57 -35 108 -4
53 -12 75 -31 98 -20 24 -26 45 -31 102 -5 61 -10 76 -36 106 -28 31 -31 41
-31 100 0 59 -3 68 -29 92 -25 24 -29 35 -34 107 -5 72 -9 82 -33 102 -24 19
-28 30 -34 107 -6 70 -11 91 -30 111 -18 19 -24 42 -32 117 -9 81 -13 97 -38
123 -26 27 -28 38 -32 122 -4 85 -6 95 -32 122 -23 24 -29 40 -32 93 -8 121
-12 140 -36 165 -20 22 -24 38 -29 133 -5 98 -8 111 -32 140 -15 17 -27 37
-28 43 0 7 -4 66 -8 133 -6 112 -9 123 -34 153 -27 32 -27 35 -27 170 0 137 0
139 -32 197 l-32 59 -6 230 c-6 216 -8 233 -31 280 l-24 50 0 685 0 685 25 45
c23 43 24 56 30 261 l5 216 30 43 c29 42 30 47 35 186 5 139 6 144 33 171 26
28 27 34 27 124 0 94 4 106 45 164 15 21 21 51 25 121 5 84 7 94 31 113 23 17
27 30 33 98 5 69 9 80 36 105 27 24 30 33 30 89 0 56 3 65 35 100 27 31 35 48
35 78 0 28 8 49 25 70 17 19 29 51 35 86 7 40 18 67 40 91 22 26 30 45 30 74
0 32 5 43 30 60 25 17 30 28 30 60 0 32 6 45 35 71 28 26 35 40 35 70 0 30 6
42 30 59 20 14 31 33 36 58 7 36 20 57 92 141 21 25 32 49 32 69 0 21 8 37 27
52 29 22 59 67 93 137 11 23 47 70 79 104 37 39 62 74 65 93 4 22 36 63 101
132 108 113 121 128 251 282 53 62 119 131 147 153 87 67 107 83 147 119 21
19 45 40 52 46 7 6 20 20 29 30 51 59 152 137 197 152 18 6 48 26 66 44 19 18
47 45 63 61 18 17 39 27 59 27 22 0 39 9 61 34 19 20 45 36 65 40 19 3 45 17
58 31 13 14 29 25 35 25 7 0 30 12 51 26 21 15 59 34 84 42 25 8 57 25 73 38
15 13 48 26 75 30 30 4 59 17 80 35 24 22 43 29 73 29 31 0 46 6 67 29 23 25
37 30 97 36 59 6 74 12 97 36 24 26 33 29 94 29 62 0 71 3 100 31 29 28 40 31
122 38 77 7 95 12 122 34 30 26 37 27 140 27 l108 0 31 32 32 33 197 5 c186 5
200 7 242 30 l45 25 395 0 395 0 50 -25 c47 -23 63 -25 247 -30 l197 -5 31
-30 c30 -29 35 -30 138 -33 99 -3 109 -6 134 -29 25 -23 88 -37 194 -42 6 -1
28 -14 49 -31 28 -22 48 -30 78 -30 29 0 48 -7 72 -29 25 -22 47 -30 93 -36
48 -5 65 -13 88 -36 21 -22 37 -29 64 -29 28 0 44 -8 70 -35 24 -25 43 -35 65
-35 22 0 40 -9 60 -30 16 -16 33 -30 38 -30 5 0 25 -13 44 -30 18 -17 45 -30
59 -30 16 0 37 -12 56 -32 32 -35 80 -67 138 -94 19 -8 49 -30 67 -47 84 -84
73 -74 128 -119 22 -19 53 -40 69 -47 16 -7 45 -24 63 -39 49 -40 653 -643
653 -652 0 -4 16 -27 35 -50 19 -23 35 -47 35 -52 0 -15 118 -145 215 -239 44
-42 92 -90 108 -105 18 -18 44 -30 75 -35 26 -4 71 -22 99 -39 l52 -32 160 4
c147 3 162 6 183 25 36 34 72 43 167 43 85 0 89 1 114 30 25 28 32 30 95 30
60 0 74 4 116 31 35 24 63 33 115 39 53 6 78 14 105 35 24 18 48 28 69 27 54
-2 119 18 144 42 20 20 36 24 98 28 65 3 78 7 103 31 26 25 40 29 107 34 63 5
83 11 107 31 26 22 44 27 124 32 85 6 97 9 123 34 27 26 36 28 138 33 96 5
112 8 147 32 38 25 46 26 215 32 157 5 185 9 261 34 78 26 96 29 230 28 148
-1 201 -8 280 -39 33 -12 91 -18 217 -23 170 -6 172 -6 200 -33 27 -26 36 -28
104 -28 68 0 80 -3 123 -31 32 -22 64 -33 105 -38 41 -5 67 -15 89 -33 22 -19
48 -28 90 -33 48 -5 66 -13 88 -36 21 -22 37 -29 65 -29 30 0 42 -6 62 -31 19
-24 34 -32 70 -36 34 -4 50 -12 66 -33 11 -16 35 -31 53 -35 18 -4 45 -18 60
-31 16 -12 36 -25 46 -28 10 -4 28 -19 39 -35 15 -19 34 -30 60 -34 36 -6 77
-38 203 -160 14 -13 40 -29 58 -35 31 -11 82 -48 124 -90 10 -9 22 -21 28 -27
23 -22 307 -308 335 -337 29 -31 54 -68 94 -139 11 -19 48 -65 83 -101 78 -82
118 -136 118 -160 0 -10 15 -35 34 -56 75 -81 93 -109 100 -145 5 -24 16 -43
32 -54 14 -9 37 -39 50 -67 48 -99 63 -123 88 -140 20 -13 26 -25 26 -54 0
-31 7 -44 35 -69 29 -26 35 -38 35 -70 0 -32 6 -43 30 -61 24 -18 30 -30 30
-61 0 -30 7 -44 35 -70 28 -25 35 -39 35 -70 0 -27 8 -49 29 -75 21 -26 31
-52 36 -93 5 -44 14 -65 35 -88 21 -23 29 -43 32 -82 4 -36 14 -66 33 -92 20
-30 29 -59 35 -110 6 -54 14 -77 34 -101 23 -28 26 -40 26 -105 0 -68 2 -74
31 -103 31 -30 32 -33 37 -147 4 -104 8 -120 31 -153 24 -35 26 -46 31 -202 6
-158 8 -167 36 -220 l29 -55 0 -720 0 -720 -29 -60 c-29 -58 -30 -65 -35 -252
-6 -187 -7 -192 -31 -218 -24 -25 -25 -34 -30 -168 -5 -137 -6 -144 -35 -186
-28 -41 -30 -53 -35 -157 -5 -104 -7 -115 -31 -141 -24 -25 -27 -38 -33 -127
-5 -93 -8 -102 -36 -131 -28 -29 -30 -36 -30 -103 0 -65 -3 -74 -30 -105 -25
-29 -31 -45 -36 -108 -5 -57 -12 -82 -32 -108 -17 -24 -27 -52 -31 -97 -5 -46
-13 -70 -29 -87 -26 -27 -42 -76 -42 -128 0 -27 -6 -40 -29 -56 -24 -18 -29
-30 -33 -76 -3 -39 -13 -68 -36 -102 -22 -33 -32 -61 -32 -86 0 -30 -6 -42
-30 -59 -25 -17 -30 -28 -30 -60 0 -29 -8 -48 -29 -72 -16 -19 -32 -52 -36
-73 -4 -22 -18 -51 -31 -65 -12 -14 -27 -44 -32 -67 -5 -23 -21 -56 -35 -72
-14 -17 -29 -45 -32 -63 -4 -18 -20 -48 -36 -66 -16 -18 -29 -44 -29 -58 0
-15 -14 -38 -35 -60 -26 -26 -35 -43 -35 -69 0 -27 -8 -42 -35 -66 -25 -23
-35 -41 -35 -62 0 -19 -12 -43 -32 -67 -61 -71 -88 -113 -88 -137 0 -14 -14
-37 -34 -56 -20 -19 -37 -46 -41 -67 -4 -19 -18 -46 -30 -60 -13 -14 -39 -43
-59 -64 -25 -27 -36 -48 -36 -70 0 -21 -10 -41 -29 -61 -94 -96 -101 -106
-101 -140 0 -27 -7 -39 -35 -61 -19 -14 -35 -32 -35 -38 0 -6 -14 -23 -30 -38
-21 -18 -30 -35 -30 -57 0 -21 -11 -42 -37 -70 -58 -60 -83 -96 -89 -131 -4
-18 -19 -40 -35 -52 -15 -12 -35 -38 -43 -58 -8 -20 -21 -42 -30 -49 -9 -7
-21 -31 -26 -52 -7 -26 -19 -42 -38 -51 -31 -15 -35 -36 -10 -52 14 -8 26 -1
68 44 28 30 59 63 68 72 9 10 20 21 24 25 4 4 83 85 175 180 169 173 205 214
233 263 26 47 62 88 197 228 178 185 175 182 198 223 44 80 63 105 122 164 93
93 133 144 133 171 0 15 21 45 62 86 59 61 82 94 128 185 11 24 29 47 39 53
26 13 80 97 101 157 7 18 20 35 30 38 18 6 40 45 40 72 0 15 17 39 88 122 21
26 32 49 32 71 0 24 9 39 35 63 27 23 35 39 35 64 0 24 9 42 35 67 24 24 35
45 35 64 0 18 11 40 29 59 18 19 32 47 36 72 4 24 13 45 21 48 20 8 44 56 44
90 0 19 10 37 30 55 24 21 30 34 30 65 0 32 6 45 35 70 29 26 35 38 35 70 0
31 7 46 30 68 22 21 30 38 30 64 0 54 15 95 44 124 20 20 26 36 26 71 0 36 5
50 26 70 22 20 28 36 33 95 6 58 11 75 35 99 24 26 28 40 33 107 5 63 11 83
31 107 21 25 26 45 33 119 6 80 10 93 38 124 30 35 31 39 31 132 0 91 1 97 29
128 27 31 28 37 33 164 6 129 7 133 34 162 l29 30 5 189 c5 182 6 190 30 222
l25 33 8 406 c5 224 5 608 0 855 l-8 449 -25 33 c-24 32 -25 42 -30 197 -5
163 -5 164 -33 193 -26 27 -28 36 -34 138 -5 99 -8 112 -31 136 -22 25 -26 40
-32 128 -7 95 -9 101 -39 129 -29 27 -31 34 -31 98 0 63 -3 72 -29 97 -24 23
-29 37 -34 97 -5 61 -10 73 -36 98 -25 24 -31 37 -31 72 0 32 -6 49 -25 69
-18 19 -29 46 -36 91 -8 48 -19 72 -40 94 -22 24 -29 40 -29 72 0 35 -5 45
-30 63 -24 17 -30 29 -30 59 0 30 -7 44 -35 70 -28 25 -35 39 -35 68 0 29 -7
43 -35 69 -25 22 -35 40 -35 61 0 19 -10 39 -30 58 -16 16 -30 33 -30 38 0 5
-14 25 -30 44 -17 18 -30 45 -30 59 0 16 -12 37 -31 55 -29 27 -56 70 -94 147
-9 19 -43 60 -76 93 -44 43 -62 69 -66 94 -4 26 -28 57 -101 132 -52 54 -150
161 -217 238 -112 129 -157 174 -255 256 -85 72 -116 100 -206 189 -94 92
-134 123 -202 155 -19 9 -64 45 -100 80 -53 52 -73 65 -98 65 -21 0 -39 9 -56
28 -50 53 -109 93 -144 99 -23 4 -43 16 -56 34 -15 20 -33 30 -64 35 -28 4
-51 16 -70 35 -20 21 -37 29 -63 29 -28 0 -42 7 -62 31 -20 24 -35 32 -72 36
-38 5 -52 12 -68 34 -17 24 -27 29 -63 29 -31 0 -55 9 -90 32 -33 21 -64 33
-99 36 -41 3 -58 11 -79 33 -25 27 -33 29 -95 29 -61 0 -75 4 -119 32 -44 29
-59 32 -149 38 -88 5 -105 9 -135 32 -34 25 -41 26 -200 30 -160 4 -167 5
-220 34 l-55 29 -445 0 -445 0 -54 -30 c-53 -28 -60 -29 -232 -35 -172 -5
-178 -6 -204 -30 -24 -23 -37 -25 -134 -30 -99 -5 -111 -7 -151 -35 -38 -26
-53 -30 -127 -34 -79 -3 -84 -5 -104 -32 -19 -27 -25 -29 -89 -29 -63 0 -72
-3 -105 -32 -31 -26 -47 -32 -105 -37 -59 -6 -72 -11 -90 -34 -16 -20 -30 -27
-56 -27 -36 0 -94 -24 -94 -39 0 -13 -27 -22 -93 -31 -45 -7 -64 -15 -86 -39
-23 -25 -37 -31 -69 -31 -34 0 -44 -5 -62 -30 -18 -25 -28 -30 -63 -30 -33 0
-50 -7 -74 -29 -22 -20 -47 -31 -82 -36 -65 -9 -85 -1 -111 40 -11 18 -27 35
-35 38 -7 3 -17 23 -21 44 -3 22 -19 51 -35 68 -129 131 -161 169 -171 197 -6
18 -23 48 -37 66 -54 67 -503 512 -534 528 -17 9 -45 27 -60 40 -16 13 -33 24
-39 24 -5 0 -42 31 -82 70 -39 38 -82 80 -96 93 -14 14 -42 28 -63 31 -29 5
-54 23 -103 72 -52 51 -71 64 -96 64 -22 0 -41 10 -64 33 -56 56 -98 84 -136
91 -25 5 -44 16 -58 36 -17 24 -29 30 -59 30 -30 0 -44 7 -70 35 -25 28 -39
35 -69 35 -29 0 -43 6 -62 29 -18 22 -36 31 -67 34 -32 3 -48 12 -68 36 -22
25 -34 31 -66 31 -28 0 -47 8 -72 29 -26 23 -47 31 -96 37 -52 6 -68 12 -89
35 -20 23 -34 29 -66 29 -58 0 -104 15 -125 42 -16 19 -30 23 -97 26 -70 3
-82 7 -109 32 -28 25 -38 28 -128 32 -91 5 -100 7 -128 34 -28 27 -33 28 -162
34 -120 5 -135 7 -165 30 -33 25 -38 25 -285 32 -139 4 -265 11 -282 17 -16 5
-48 17 -70 25 -31 12 -86 15 -245 15 -194 0 -209 -1 -280 -25z"/>
<path d="M13685 14027 c-34 -19 -59 -22 -165 -25 -123 -3 -125 -4 -150 -31
-23 -26 -32 -29 -124 -34 -93 -5 -100 -7 -130 -36 -30 -29 -37 -31 -107 -31
-68 0 -80 -3 -124 -32 -41 -27 -60 -33 -129 -38 -71 -4 -84 -8 -108 -33 -25
-25 -34 -27 -101 -27 -66 0 -78 -3 -122 -32 -43 -28 -59 -33 -134 -38 -71 -4
-92 -9 -119 -30 -28 -21 -47 -25 -136 -30 -94 -5 -108 -9 -146 -35 -41 -29
-49 -30 -174 -35 -120 -5 -134 -7 -164 -30 -31 -23 -43 -25 -185 -30 -126 -5
-158 -9 -186 -25 -18 -11 -43 -26 -55 -32 -15 -9 -86 -13 -248 -13 l-226 0
-30 25 c-17 14 -51 32 -76 39 -25 8 -60 26 -77 40 -17 14 -39 26 -49 26 -11 0
-68 47 -127 105 -59 57 -119 115 -133 128 -14 14 -38 28 -55 31 -16 4 -47 23
-70 43 -171 148 -165 145 -253 154 -43 4 -96 13 -120 19 -32 8 -48 7 -65 -2
-13 -8 -79 -15 -163 -18 -133 -5 -142 -6 -171 -31 -30 -25 -38 -26 -172 -31
-128 -5 -144 -7 -165 -27 -33 -31 -78 -41 -192 -41 -100 0 -102 -1 -131 -30
-28 -29 -34 -30 -139 -36 -98 -6 -112 -9 -136 -32 -25 -23 -38 -26 -133 -31
-100 -6 -106 -7 -128 -34 -20 -25 -29 -28 -110 -34 -77 -5 -93 -10 -124 -35
-27 -21 -47 -28 -79 -28 -51 0 -91 -14 -120 -41 -13 -12 -44 -23 -78 -28 -42
-6 -60 -14 -75 -33 -16 -19 -32 -27 -71 -30 -32 -3 -64 -15 -90 -33 -22 -15
-60 -31 -86 -36 -30 -6 -53 -17 -66 -34 -12 -16 -34 -27 -60 -31 -23 -4 -53
-19 -71 -35 -17 -16 -43 -31 -59 -34 -15 -4 -30 -11 -34 -16 -3 -5 -24 -19
-47 -30 -23 -12 -54 -34 -69 -50 -19 -21 -36 -29 -61 -29 -26 0 -40 -8 -64
-35 -17 -19 -38 -35 -46 -35 -7 0 -22 -9 -32 -20 -9 -10 -34 -25 -54 -31 -20
-7 -52 -28 -72 -48 -66 -67 -99 -91 -126 -91 -24 0 -58 -29 -192 -161 -14 -15
-44 -36 -67 -47 -22 -11 -46 -28 -53 -36 -8 -9 -19 -16 -27 -16 -17 0 -493
-476 -519 -520 -11 -18 -30 -51 -42 -73 -13 -23 -36 -55 -53 -71 -17 -17 -42
-43 -57 -58 -27 -27 -43 -53 -83 -135 -11 -23 -33 -51 -49 -62 -19 -14 -30
-32 -34 -56 -3 -20 -20 -52 -36 -71 -17 -19 -31 -41 -31 -48 0 -7 -9 -21 -20
-31 -11 -10 -25 -37 -32 -59 -6 -23 -23 -56 -36 -75 -14 -19 -31 -58 -38 -87
-7 -30 -24 -68 -38 -85 -19 -22 -26 -42 -26 -72 0 -32 -7 -48 -30 -72 -27 -28
-32 -41 -37 -106 -5 -61 -10 -79 -31 -102 -24 -25 -27 -38 -32 -131 -5 -94 -9
-108 -35 -146 l-30 -43 -5 -208 c-5 -202 -6 -208 -30 -241 -25 -33 -25 -35
-25 -233 0 -198 0 -200 25 -233 24 -33 25 -40 30 -225 5 -194 7 -204 43 -244
16 -18 21 -41 25 -123 4 -95 6 -102 32 -120 24 -17 28 -27 33 -96 5 -71 8 -79
36 -101 26 -20 31 -32 31 -65 0 -31 7 -49 30 -75 18 -20 30 -45 30 -62 0 -15
13 -47 29 -72 16 -24 32 -56 36 -70 4 -15 20 -39 36 -55 20 -19 29 -37 29 -60
0 -24 8 -39 31 -58 17 -14 35 -43 41 -64 10 -36 32 -67 98 -142 40 -44 90
-121 90 -138 0 -7 17 -31 38 -53 31 -35 537 -540 627 -628 17 -16 43 -32 59
-36 31 -7 76 -39 129 -91 18 -18 46 -35 64 -38 17 -4 37 -14 44 -22 7 -9 26
-22 43 -31 17 -8 43 -28 58 -44 19 -20 36 -29 59 -29 24 0 41 -9 65 -35 26
-29 39 -35 71 -35 32 0 43 -6 61 -30 18 -23 30 -30 58 -30 36 0 71 -14 89 -35
14 -18 72 -35 116 -35 30 0 42 -6 59 -30 20 -29 25 -30 94 -30 66 0 77 -3 111
-30 21 -16 38 -30 39 -31 0 0 51 -4 113 -8 96 -6 116 -10 150 -33 37 -26 42
-26 248 -32 134 -3 235 -11 280 -21 156 -34 183 -37 285 -32 68 4 128 14 170
27 39 13 103 24 160 27 86 5 98 8 128 34 19 17 44 29 60 29 15 0 42 4 60 9 31
9 45 19 133 89 23 17 51 32 64 32 16 0 51 28 112 89 103 103 143 156 143 186
0 12 15 36 35 54 29 26 35 39 35 71 0 32 5 43 30 60 24 17 30 29 30 58 1 61
17 111 44 139 25 25 26 29 26 155 0 115 3 138 27 206 24 68 27 91 27 202 0
110 -3 131 -24 175 -21 45 -24 69 -29 227 -6 176 -6 177 -34 206 -25 26 -28
37 -34 126 -5 86 -9 102 -32 129 -21 25 -27 45 -32 104 -5 63 -10 78 -34 103
-24 25 -30 43 -36 96 -5 51 -12 71 -33 93 -20 21 -26 37 -26 70 0 36 -5 47
-35 74 -28 25 -35 38 -35 68 0 29 -7 46 -30 69 -17 18 -30 41 -30 56 0 30 -17
65 -40 81 -10 7 -20 30 -24 53 -4 27 -16 49 -36 67 -22 19 -30 35 -30 60 0 26
-8 42 -34 66 -21 20 -36 46 -40 67 -4 24 -24 54 -62 95 -38 40 -59 73 -66 99
-5 21 -20 51 -35 65 -84 85 -154 170 -164 199 -6 18 -19 43 -30 55 -51 60
-588 597 -596 597 -5 0 -32 16 -59 35 -27 19 -53 35 -58 35 -4 0 -39 30 -77
68 -106 105 -128 122 -155 122 -14 0 -39 13 -57 31 -137 130 -173 159 -204
165 -26 5 -66 40 -181 154 -211 213 -205 204 -210 313 -5 91 -5 91 25 117 17
14 35 35 42 48 9 17 20 22 49 22 50 0 81 22 66 47 -9 15 -27 18 -115 21 l-105
3 -29 -31 c-16 -16 -34 -30 -39 -30 -6 0 -28 -5 -48 -11 -34 -9 -39 -14 -44
-51 -4 -25 -18 -52 -35 -69 l-29 -30 0 -139 0 -139 30 -22 c22 -17 31 -33 36
-67 6 -42 19 -57 217 -253 115 -115 215 -209 222 -209 6 0 29 -13 51 -30 21
-16 44 -30 51 -30 7 0 47 -34 90 -75 113 -109 115 -111 152 -123 19 -7 48 -25
64 -40 93 -86 457 -455 457 -463 0 -19 69 -115 129 -179 95 -102 118 -132 129
-172 6 -21 25 -53 44 -72 69 -72 88 -99 88 -128 0 -17 9 -35 21 -46 43 -35 49
-44 49 -76 0 -24 9 -43 35 -69 23 -24 35 -45 35 -65 0 -18 10 -38 29 -56 19
-18 30 -41 34 -67 3 -24 17 -53 36 -74 23 -27 31 -46 31 -73 0 -31 6 -43 30
-60 25 -19 30 -29 30 -66 0 -28 7 -52 20 -69 31 -39 50 -92 50 -136 0 -29 7
-48 25 -67 14 -15 25 -27 26 -28 0 -1 4 -36 8 -78 7 -61 15 -86 40 -124 27
-42 31 -56 31 -119 0 -65 2 -74 29 -99 28 -27 29 -30 33 -159 4 -124 6 -135
34 -182 l29 -50 0 -207 0 -207 -29 -30 c-25 -26 -29 -40 -34 -103 -4 -63 -9
-77 -33 -103 -32 -33 -94 -110 -122 -149 -10 -14 -32 -33 -49 -42 -17 -9 -48
-32 -67 -51 -79 -75 -87 -81 -129 -86 -24 -3 -61 -18 -83 -32 -30 -21 -57 -30
-116 -36 -43 -4 -79 -8 -80 -8 -1 -1 -11 -11 -22 -22 -30 -33 -84 -38 -366
-38 -301 1 -355 6 -390 39 -22 21 -38 24 -138 29 -104 6 -116 9 -150 35 -32
24 -50 30 -112 34 -65 4 -77 8 -101 33 -22 23 -37 29 -69 29 -32 0 -52 7 -80
30 -25 20 -54 32 -87 36 -34 5 -61 16 -82 34 -17 15 -47 31 -66 35 -19 4 -50
20 -68 36 -18 16 -38 29 -44 29 -5 0 -26 14 -45 30 -18 16 -45 30 -59 30 -15
0 -36 12 -54 31 -15 17 -45 40 -67 51 -81 41 -103 57 -165 117 -34 34 -75 69
-90 77 -16 8 -28 18 -28 23 0 4 -17 16 -38 25 -33 15 -119 86 -187 156 -11 11
-25 25 -32 31 -6 6 -19 20 -30 30 -10 11 -30 32 -45 47 -37 37 -74 89 -96 135
-11 20 -31 50 -45 65 -133 137 -157 168 -157 199 0 24 -7 38 -30 54 -18 14
-36 41 -45 70 -9 25 -24 54 -35 64 -10 9 -21 29 -25 43 -3 15 -18 44 -32 64
-14 21 -29 59 -34 85 -5 27 -17 55 -28 63 -28 24 -41 55 -41 98 0 25 -6 45
-17 53 -28 24 -43 75 -43 148 0 65 -3 73 -32 107 l-32 36 -6 222 c-5 173 -10
229 -23 260 -21 49 -22 136 -1 201 12 37 18 110 23 276 l6 226 30 43 c27 38
30 53 34 129 3 77 6 89 31 117 22 25 29 45 34 102 6 61 11 75 33 92 20 16 28
33 34 75 5 36 18 72 38 102 17 25 31 59 31 74 0 17 12 42 29 61 15 18 32 44
36 58 4 14 17 39 29 55 12 17 27 42 33 57 7 15 24 34 38 44 19 12 25 25 25 50
0 26 9 44 35 72 19 20 51 54 70 74 19 20 35 42 35 49 0 7 11 27 25 45 14 18
25 38 25 44 0 8 531 542 666 670 11 11 39 26 61 34 21 7 67 40 101 72 95 90
124 111 169 123 23 6 47 21 56 35 15 23 42 40 132 85 23 11 53 34 68 51 21 23
36 30 64 30 29 0 43 7 69 35 25 27 39 35 67 35 28 0 40 6 57 30 17 24 29 30
57 30 27 0 45 9 74 35 28 25 48 35 72 35 25 0 41 8 60 30 22 24 35 30 68 30
30 0 46 7 66 26 29 29 74 43 135 44 29 0 41 6 57 29 18 25 28 29 92 34 63 5
76 10 102 37 27 28 34 30 103 30 69 0 74 1 94 30 20 29 25 30 93 30 88 0 128
11 168 44 28 24 38 26 127 26 88 0 99 2 136 28 37 25 48 27 176 33 129 5 140
7 186 35 48 28 53 29 215 34 159 5 167 6 205 32 47 31 93 28 129 -8 17 -17 35
-24 63 -24 35 0 48 -8 103 -60 104 -97 310 -270 322 -270 6 0 25 -15 43 -32
85 -86 103 -98 141 -98 25 0 53 -10 83 -30 l45 -30 404 0 404 0 46 27 c43 26
56 28 188 33 141 6 143 6 173 35 30 29 36 30 145 35 108 5 114 6 139 33 23 24
32 27 93 27 76 0 139 14 150 34 15 24 52 36 115 36 58 0 67 3 92 29 24 25 36
29 97 33 60 3 72 7 101 35 27 25 43 32 89 35 43 3 65 11 89 31 28 24 40 27
104 27 85 0 100 -11 109 -78 3 -24 17 -61 32 -81 14 -21 31 -56 36 -77 6 -22
19 -48 29 -59 10 -11 25 -37 33 -57 9 -20 25 -41 36 -48 14 -7 23 -25 27 -52
4 -23 16 -48 27 -57 11 -9 33 -29 47 -44 26 -27 33 -29 142 -34 64 -3 127 -3
141 1 36 9 47 54 47 191 l0 111 44 43 44 44 51 -44 51 -44 0 -70 c0 -64 -2
-71 -31 -101 l-32 -33 46 -45 c33 -34 55 -47 86 -52 30 -5 47 -15 62 -35 16
-23 28 -29 58 -29 77 0 72 58 69 -717 l-3 -692 -27 -28 c-24 -25 -28 -37 -28
-89 -1 -81 -13 -128 -44 -165 -19 -22 -26 -42 -26 -73 0 -34 -6 -48 -29 -70
-19 -18 -30 -41 -34 -68 -4 -28 -15 -49 -36 -69 -23 -21 -31 -37 -31 -63 0
-26 -7 -40 -27 -56 -26 -20 -65 -78 -97 -146 -14 -28 -396 -417 -469 -475 -17
-15 -46 -30 -64 -33 -21 -5 -55 -30 -95 -70 -47 -46 -72 -64 -99 -68 -33 -6
-57 -23 -131 -93 -15 -15 -44 -29 -65 -32 -25 -4 -48 -17 -69 -39 -25 -26 -40
-34 -68 -34 -28 0 -40 -6 -58 -30 -18 -25 -29 -30 -62 -30 -33 0 -45 -6 -72
-35 -26 -28 -39 -35 -70 -35 -28 0 -46 -7 -66 -27 -23 -22 -42 -28 -95 -34
-56 -6 -70 -11 -95 -38 -27 -29 -34 -31 -98 -31 -63 0 -70 -2 -90 -27 -20 -26
-29 -28 -106 -34 -74 -5 -87 -8 -113 -33 -27 -26 -39 -29 -119 -35 -53 -4 -96
-12 -106 -20 -16 -13 -15 -16 11 -41 15 -15 36 -36 45 -48 17 -21 24 -22 252
-22 l234 0 31 26 c41 34 85 43 205 44 93 0 102 2 127 26 23 22 40 27 118 34
82 8 95 12 127 39 27 24 44 31 76 31 31 0 48 7 75 30 21 19 45 30 63 30 38 0
76 15 110 44 16 13 46 26 67 29 23 4 49 17 63 32 13 14 29 25 36 25 7 0 25 13
40 29 16 17 43 32 63 36 20 3 49 20 66 36 56 55 100 86 132 93 22 5 63 38 131
104 55 53 137 133 183 178 86 83 246 252 298 314 16 19 33 52 39 72 6 21 24
50 41 64 17 14 31 34 31 43 0 10 11 34 24 54 14 20 34 55 46 79 11 24 30 59
40 78 11 19 20 52 20 72 0 29 6 41 30 58 26 19 30 28 30 68 0 64 13 104 44
135 25 25 26 31 26 133 0 101 2 110 31 160 l30 54 0 827 c0 574 -3 837 -10
857 -6 15 -20 40 -31 54 -15 19 -20 40 -20 89 0 69 -17 153 -31 153 -16 0 -39
59 -39 98 0 25 -9 52 -25 77 -14 20 -32 54 -39 74 -7 20 -32 63 -55 94 -33 43
-52 59 -82 67 -23 7 -46 22 -59 40 -21 29 -24 30 -98 30 -61 0 -88 5 -130 25
-66 31 -123 31 -177 2z"/>
<path d="M9885 12883 c-10 -3 -31 -18 -46 -34 -20 -21 -36 -29 -63 -29 -31 0
-45 -10 -116 -80 -68 -68 -80 -84 -80 -113 0 -26 -8 -40 -35 -64 l-35 -31 -1
-99 c-3 -158 3 -287 12 -305 15 -29 36 -21 109 40 101 85 143 118 166 130 11
6 48 38 82 71 52 51 69 61 97 61 23 0 45 9 67 29 18 15 51 31 73 35 40 7 125
76 125 102 0 6 10 24 22 39 16 20 19 30 10 33 -7 2 -24 25 -37 50 -14 26 -39
58 -56 72 -17 14 -48 42 -69 63 l-37 37 -84 -1 c-46 -1 -93 -4 -104 -6z"/>
<path d="M14083 9916 c-16 -13 -47 -29 -71 -35 -25 -7 -46 -20 -53 -34 -7 -12
-22 -30 -35 -40 -15 -11 -25 -33 -29 -61 -5 -32 -15 -49 -35 -64 -18 -14 -30
-34 -35 -59 -4 -20 -20 -52 -36 -71 -16 -18 -29 -38 -29 -44 0 -6 -11 -25 -24
-42 -13 -17 -26 -42 -31 -55 -4 -13 -57 -74 -119 -136 -109 -110 -113 -112
-164 -117 -33 -3 -66 -15 -94 -33 l-42 -28 -384 -5 -383 -5 -37 -25 c-29 -21
-54 -27 -115 -32 -71 -6 -80 -9 -107 -38 -23 -26 -37 -32 -68 -32 -30 0 -44
-6 -65 -30 -21 -23 -36 -30 -63 -30 -28 0 -42 -7 -67 -35 -25 -28 -38 -35 -68
-35 -30 0 -42 -6 -58 -29 -15 -21 -33 -31 -64 -36 -28 -5 -51 -17 -69 -36 -21
-23 -36 -29 -67 -29 -32 0 -46 -6 -70 -32 l-30 -32 -468 -1 -468 0 -49 -30
c-27 -16 -88 -69 -137 -116 -67 -65 -89 -93 -89 -113 0 -14 -13 -40 -29 -58
-21 -24 -30 -47 -33 -84 -3 -36 -13 -62 -33 -89 -26 -33 -30 -48 -35 -125 -4
-80 -7 -90 -31 -109 l-26 -20 -6 -188 c-2 -103 -11 -220 -18 -258 -11 -61 -10
-85 4 -171 9 -55 17 -150 17 -211 0 -106 1 -113 26 -143 19 -22 28 -47 33 -91
6 -50 13 -66 39 -90 22 -20 32 -39 32 -59 0 -38 20 -61 328 -370 334 -336 318
-319 326 -360 3 -19 18 -46 31 -60 71 -72 95 -105 95 -129 0 -42 21 -105 41
-124 10 -10 21 -28 24 -40 3 -12 5 -152 3 -312 l-3 -290 -30 -44 c-29 -42 -30
-50 -33 -165 -4 -114 -5 -123 -29 -148 -24 -25 -27 -38 -34 -150 -4 -68 -8
-124 -8 -124 -1 -1 -14 -18 -31 -39 -29 -36 -30 -42 -30 -135 0 -93 -1 -99
-27 -125 -26 -25 -28 -35 -34 -138 -7 -107 -8 -112 -35 -134 -28 -22 -29 -26
-32 -126 -3 -92 -2 -104 16 -120 19 -18 21 -18 39 8 10 14 28 38 40 53 11 15
26 46 32 69 7 24 21 47 35 57 18 11 27 29 31 60 5 31 16 52 36 70 21 19 29 35
29 61 0 24 9 45 30 69 24 27 31 46 37 97 5 53 11 68 35 89 23 20 28 33 28 68
0 36 5 49 31 73 28 26 32 37 37 99 4 59 9 73 33 96 26 25 29 34 29 96 0 62 3
70 32 104 31 36 33 42 38 139 4 90 8 105 31 132 25 30 26 36 33 209 3 99 11
200 16 226 6 33 5 79 -5 155 -8 59 -15 135 -15 169 0 52 -4 64 -25 84 -15 14
-28 40 -32 63 -4 25 -16 48 -33 64 -16 14 -30 39 -33 60 -4 21 -19 49 -37 67
-16 17 -176 178 -356 358 -275 276 -326 333 -331 362 -3 20 -18 46 -34 62 -23
22 -29 37 -29 68 0 31 -7 47 -31 72 l-32 33 -7 168 c-5 92 -14 186 -20 207 -9
31 -9 53 0 100 7 34 16 136 19 227 7 163 8 168 36 209 21 31 31 59 36 105 4
45 13 72 33 97 14 19 26 40 26 46 0 21 95 105 133 118 21 8 50 23 64 34 37 29
107 27 147 -3 17 -13 43 -27 58 -31 15 -3 161 -6 325 -6 l298 0 25 30 c20 24
33 30 63 30 32 0 44 6 70 35 24 27 38 35 66 35 27 0 42 8 67 35 22 25 40 35
61 35 19 0 39 10 58 30 16 17 35 30 42 30 7 0 22 14 35 30 13 18 31 30 44 30
36 0 75 18 96 45 17 22 27 25 88 25 59 0 73 4 99 26 17 14 45 29 63 35 19 5
249 9 530 9 l496 0 29 24 c16 14 43 28 59 32 31 7 44 18 171 146 209 211 212
214 219 257 5 30 15 47 35 62 22 15 29 29 31 61 3 36 9 46 43 70 22 15 45 27
51 28 7 0 19 -17 27 -37 8 -21 29 -48 46 -61 23 -17 31 -30 31 -54 0 -30 19
-58 100 -145 21 -23 30 -43 30 -67 0 -27 7 -39 30 -56 25 -17 30 -28 30 -60 0
-30 8 -48 31 -75 25 -29 32 -46 36 -97 4 -51 11 -69 33 -93 24 -26 28 -41 33
-103 4 -63 8 -77 33 -103 27 -28 29 -37 34 -133 4 -92 8 -105 31 -133 25 -29
27 -39 31 -163 4 -112 8 -135 26 -159 42 -58 43 -75 40 -761 l-3 -655 -29 -48
c-28 -46 -29 -56 -34 -194 -5 -138 -6 -146 -31 -176 -24 -29 -26 -39 -31 -162
-5 -126 -6 -134 -35 -175 l-30 -43 -6 -186 c-5 -172 -7 -189 -30 -231 -23 -44
-24 -51 -24 -256 l0 -210 28 -33 c18 -22 27 -44 27 -69 1 -59 15 -106 41 -134
27 -30 76 -87 118 -138 15 -19 36 -49 44 -67 9 -17 75 -91 147 -164 119 -120
154 -150 254 -214 31 -20 132 -112 189 -173 16 -17 38 -32 47 -32 10 0 34 -13
55 -30 21 -16 43 -30 50 -30 7 0 25 -16 39 -35 15 -19 35 -35 45 -35 10 0 29
-8 42 -19 13 -10 40 -26 59 -36 19 -10 47 -31 61 -46 20 -21 36 -29 62 -29 28
0 40 -6 57 -30 17 -25 28 -30 60 -30 32 0 45 -6 71 -35 26 -28 40 -35 70 -35
31 0 43 -6 60 -29 18 -24 30 -29 74 -33 37 -3 64 -12 87 -30 18 -14 43 -28 56
-32 22 -7 92 10 92 22 -1 18 -80 92 -110 105 -44 18 -67 37 -197 162 -128 123
-159 149 -201 163 -19 7 -46 23 -60 38 -200 195 -228 219 -336 289 -68 44
-298 271 -322 317 -9 18 -27 46 -40 61 -13 16 -24 33 -24 39 0 5 -29 39 -65
75 -56 56 -65 70 -65 102 0 28 -7 42 -29 61 -27 23 -30 32 -42 140 -15 137
-15 141 3 347 12 148 16 164 38 188 22 24 25 36 30 160 4 117 8 136 26 157 34
37 37 54 43 245 6 176 7 182 31 208 l25 27 6 346 c4 191 12 388 19 437 13 95
8 345 -9 485 -6 41 -10 185 -10 319 l-1 245 -27 40 c-26 37 -28 47 -33 175 -5
133 -6 138 -38 185 -29 45 -32 57 -32 124 0 65 -3 79 -29 115 -21 30 -31 59
-35 102 -5 45 -13 66 -32 86 -20 20 -28 43 -34 93 -7 56 -13 71 -39 95 -25 23
-31 37 -31 69 0 33 -5 44 -29 61 -21 15 -30 31 -34 63 -4 29 -14 50 -30 63
-14 11 -32 34 -40 51 -9 17 -22 36 -31 43 -8 7 -18 27 -21 44 -4 18 -20 46
-36 62 -56 56 -99 117 -99 138 0 12 -13 36 -30 52 -167 169 -194 191 -242 200
-20 4 -48 20 -64 36 -36 38 -90 40 -131 5z"/>
<path d="M4757 8622 c-13 -14 -17 -38 -17 -90 0 -62 -3 -74 -27 -103 -28 -32
-28 -35 -33 -199 -5 -165 -5 -167 -35 -210 -30 -43 -30 -45 -35 -210 -5 -160
-6 -168 -32 -206 -25 -37 -26 -47 -30 -181 -3 -127 -6 -144 -24 -165 -36 -40
-38 -49 -44 -189 -5 -126 -7 -139 -31 -175 -24 -35 -27 -51 -32 -153 -5 -107
-7 -115 -34 -143 -26 -27 -28 -36 -31 -126 -3 -91 -6 -99 -32 -127 -24 -25
-30 -41 -35 -105 -5 -56 -14 -85 -32 -112 -18 -26 -28 -58 -32 -103 -5 -44
-13 -72 -28 -87 -25 -28 -43 -80 -43 -124 0 -25 -8 -41 -30 -61 -24 -21 -30
-34 -30 -68 0 -30 -9 -55 -31 -89 -19 -28 -34 -65 -37 -91 -3 -31 -13 -52 -33
-71 -22 -21 -29 -37 -29 -64 0 -28 -8 -44 -35 -70 -28 -27 -35 -42 -35 -71 0
-30 -6 -42 -30 -59 -22 -15 -32 -33 -36 -62 -4 -22 -16 -48 -26 -57 -11 -9
-29 -34 -40 -56 -11 -22 -29 -51 -39 -64 -11 -13 -19 -31 -19 -40 0 -10 -16
-32 -35 -51 -28 -27 -35 -42 -35 -71 0 -30 -6 -42 -29 -59 -17 -11 -33 -31
-37 -43 -3 -12 -16 -35 -29 -52 -12 -16 -25 -40 -29 -51 -4 -12 -22 -38 -41
-57 -23 -24 -35 -46 -35 -64 0 -17 -11 -39 -27 -56 -16 -16 -42 -44 -60 -62
-19 -19 -34 -48 -39 -71 -4 -24 -20 -52 -41 -74 -19 -19 -45 -47 -59 -61 -13
-14 -27 -41 -30 -61 -5 -26 -23 -54 -67 -99 -63 -67 -87 -119 -66 -145 24 -29
34 -22 199 139 14 14 41 32 60 39 41 17 111 74 192 156 10 9 22 22 28 27 6 6
34 34 63 63 29 30 58 59 65 65 22 19 108 108 168 172 31 33 63 76 71 95 19 43
48 80 136 171 54 56 67 76 67 101 0 22 9 41 30 62 83 84 100 107 100 138 0 23
9 40 35 64 25 22 35 40 35 61 0 19 10 41 29 60 16 17 32 46 36 64 4 19 18 45
31 59 13 14 28 46 32 71 5 27 19 55 35 71 20 20 27 37 27 67 0 32 6 44 29 63
25 20 31 33 40 96 8 58 15 78 35 97 20 19 26 34 26 67 0 51 17 118 30 118 21
0 40 61 40 126 0 60 3 71 28 97 26 27 27 35 32 147 6 110 8 121 35 161 30 42
30 43 35 223 5 169 7 184 30 226 l25 45 0 560 0 560 -27 68 c-27 64 -28 76
-28 230 -1 119 -4 167 -14 180 -16 21 -19 21 -39 -1z"/>
<path d="M12110 8309 c-66 -7 -100 -17 -100 -29 0 -5 -14 -25 -31 -44 -16 -19
-34 -48 -39 -65 -7 -27 -4 -34 36 -74 32 -32 55 -47 83 -52 24 -4 49 -18 67
-36 20 -21 37 -29 61 -29 23 0 43 -9 64 -30 18 -16 47 -34 66 -39 18 -5 47
-21 64 -35 17 -14 36 -26 43 -26 8 0 25 -9 38 -20 25 -19 25 -19 45 3 43 49
43 50 28 112 -8 33 -14 79 -15 102 0 29 -7 50 -24 70 -13 15 -29 45 -35 65
-13 38 -63 82 -126 112 -36 16 -149 24 -225 15z"/>
<path d="M3527 5403 c-11 -10 -8 -73 3 -73 6 0 10 18 10 40 0 41 -2 45 -13 33z"/>
<path d="M19275 4051 c-11 -5 -28 -18 -38 -29 -11 -11 -37 -24 -58 -27 -22 -4
-53 -18 -69 -31 -15 -14 -48 -30 -72 -38 -24 -7 -61 -25 -82 -39 -21 -15 -47
-27 -56 -27 -9 0 -35 -12 -56 -27 -21 -14 -58 -32 -82 -39 -24 -7 -55 -23 -69
-34 -14 -11 -48 -27 -75 -35 -27 -8 -62 -25 -78 -38 -15 -13 -46 -27 -67 -30
-22 -4 -49 -17 -62 -31 -13 -14 -40 -27 -61 -31 -22 -4 -52 -19 -69 -36 -22
-21 -41 -29 -66 -29 -27 0 -43 -7 -63 -29 -18 -20 -41 -32 -69 -37 -27 -4 -51
-16 -69 -35 -21 -22 -37 -29 -66 -29 -30 0 -42 -6 -60 -30 -17 -23 -32 -31
-70 -36 -38 -5 -53 -13 -69 -35 -16 -24 -28 -29 -60 -29 -30 0 -44 -6 -65 -29
-17 -20 -39 -31 -68 -35 -30 -5 -51 -16 -70 -36 -21 -24 -34 -30 -67 -30 -32
0 -46 -6 -67 -29 -22 -25 -38 -31 -91 -37 -51 -5 -69 -13 -92 -35 -23 -22 -39
-29 -69 -29 -29 0 -48 -8 -74 -30 -28 -25 -46 -32 -101 -37 -57 -5 -71 -10
-93 -35 -23 -26 -31 -28 -95 -28 -64 0 -71 -2 -97 -30 -26 -28 -36 -31 -120
-39 -75 -7 -95 -12 -116 -32 -22 -21 -39 -25 -124 -30 -88 -5 -103 -9 -146
-37 -46 -31 -51 -32 -152 -32 -97 0 -108 -2 -156 -29 -49 -28 -56 -29 -206
-33 -150 -3 -157 -4 -210 -33 l-55 -30 -295 -6 c-247 -5 -302 -8 -340 -23 -25
-10 -61 -21 -80 -26 -19 -5 -291 -10 -603 -10 -498 0 -572 2 -605 16 -20 9
-50 21 -67 26 -16 6 -174 13 -350 17 l-320 6 -60 30 c-59 29 -63 29 -272 35
-208 5 -212 5 -238 30 -26 24 -32 25 -198 30 -155 5 -175 7 -202 26 -47 34
-101 44 -237 44 -123 0 -127 1 -159 27 -32 27 -38 28 -179 34 -150 5 -159 7
-198 43 -21 19 -40 22 -161 26 -132 5 -139 6 -170 33 -31 26 -38 27 -134 27
-122 1 -171 10 -204 41 -22 22 -36 24 -158 29 -124 5 -135 7 -160 30 -24 23
-36 25 -166 31 -124 6 -143 9 -163 28 -34 32 -79 41 -197 41 -96 0 -110 2
-142 24 -49 34 -59 36 -205 44 -120 8 -132 10 -161 35 -32 26 -35 27 -169 27
l-136 0 -33 32 -32 31 -138 5 c-130 4 -141 6 -189 33 -49 28 -57 29 -181 29
-135 0 -177 8 -226 44 -26 19 -46 21 -237 26 -203 5 -209 6 -242 30 l-33 25
-320 6 c-292 6 -325 8 -379 28 -109 39 -202 42 -1076 39 l-835 -3 -80 -29
c-79 -29 -84 -29 -350 -35 l-270 -6 -35 -27 c-34 -26 -39 -26 -206 -30 l-171
-3 -43 -30 c-41 -29 -49 -30 -174 -35 -120 -5 -134 -8 -168 -31 -32 -23 -49
-27 -148 -31 -107 -5 -113 -7 -143 -36 -30 -28 -38 -30 -118 -34 -73 -2 -92
-7 -125 -30 -30 -20 -57 -28 -118 -33 -71 -6 -83 -10 -107 -36 -25 -27 -33
-29 -97 -29 -66 0 -72 -2 -94 -30 -21 -27 -30 -30 -100 -36 -68 -6 -79 -10
-96 -34 -17 -23 -30 -28 -75 -32 -39 -3 -68 -13 -102 -36 -32 -21 -61 -32 -85
-32 -28 0 -43 -7 -63 -30 -21 -23 -36 -30 -65 -30 -29 0 -45 -7 -66 -29 -18
-19 -43 -32 -70 -37 -23 -4 -55 -19 -74 -35 -21 -19 -44 -29 -63 -29 -21 0
-40 -9 -58 -29 -17 -18 -42 -31 -69 -36 -30 -5 -48 -15 -63 -36 -16 -23 -28
-29 -59 -29 -32 0 -43 -6 -65 -34 -19 -25 -35 -35 -66 -39 -24 -3 -50 -16 -67
-31 -86 -84 -104 -96 -134 -96 -23 0 -40 -9 -62 -33 -17 -19 -40 -39 -51 -45
-16 -9 -18 -14 -9 -29 22 -36 124 -28 173 12 24 21 40 25 92 25 79 0 125 12
169 45 30 22 44 25 115 25 75 0 85 3 130 32 43 28 59 33 134 38 70 4 92 9 119
30 27 20 47 25 132 30 72 4 104 11 117 23 36 32 91 47 171 47 71 0 83 3 123
30 39 26 52 30 119 30 84 0 149 15 156 35 9 23 34 28 164 35 113 5 129 8 162
32 36 24 44 26 211 30 171 4 174 5 223 34 l49 29 340 6 c315 6 346 8 425 29
84 23 93 24 690 28 618 4 725 -1 841 -35 43 -13 132 -17 444 -22 l390 -6 55
-29 55 -29 240 -7 c237 -6 241 -6 289 -33 47 -26 55 -27 200 -27 160 0 212 -9
258 -43 27 -20 46 -23 183 -27 144 -5 155 -7 187 -30 31 -23 43 -25 184 -30
148 -5 152 -6 194 -35 42 -29 47 -30 191 -35 144 -5 148 -6 176 -32 28 -27 33
-28 134 -28 123 -1 188 -12 205 -34 19 -26 70 -36 189 -36 107 0 113 -1 159
-30 46 -30 55 -31 185 -37 131 -6 137 -7 169 -34 32 -28 35 -29 152 -29 124 0
160 -8 197 -42 20 -19 38 -22 155 -26 124 -4 136 -6 172 -30 37 -25 49 -27
176 -32 132 -5 138 -6 180 -35 42 -29 47 -30 191 -35 140 -5 149 -6 174 -30
25 -24 33 -25 183 -30 152 -5 159 -7 207 -35 49 -29 53 -30 222 -35 163 -5
173 -6 205 -30 32 -24 39 -25 243 -31 208 -6 211 -6 265 -35 l55 -29 315 -6
c289 -6 321 -9 390 -30 73 -22 89 -23 553 -26 l478 -4 102 27 c96 26 119 28
377 34 l275 6 55 29 c53 29 61 30 205 33 144 4 152 5 201 33 48 27 59 29 156
29 101 0 106 1 153 32 45 30 58 33 145 38 82 5 100 9 134 33 34 24 48 27 115
27 75 0 78 1 111 35 33 34 37 35 106 35 68 0 74 2 93 29 18 25 28 29 92 34 63
5 76 10 104 37 25 24 40 30 75 30 44 0 62 7 114 44 14 10 46 21 71 23 32 4 51
13 70 34 20 23 34 29 66 29 31 0 46 6 67 29 17 18 41 31 66 34 21 4 55 18 75
31 20 14 58 32 83 40 26 7 59 23 74 35 15 11 32 21 38 21 7 0 36 16 66 35 30
19 62 35 70 35 9 0 29 13 44 29 18 19 43 32 68 36 25 5 49 17 65 35 14 16 40
31 61 35 20 4 53 21 73 38 70 60 112 87 136 87 16 0 36 13 56 35 17 19 35 35
40 35 16 0 131 74 163 105 47 46 105 85 126 85 17 0 69 41 129 104 15 15 44
37 66 48 82 41 105 58 170 122 108 106 116 113 151 124 43 15 72 39 228 190
70 68 143 132 163 143 41 22 99 63 120 84 33 32 -38 59 -94 36z"/>
</g>
</svg>
